# xmcd CD database file
#
# Track frame offsets:
#	182
#	14455
#	26695
#	41242
#	53217
#	67415
#	81235
#	96285
#	110285
#	124227
#	144587
#	156637
#	170332
#	184122
#	198767
#	209887
#
# Disc length: 2984 seconds
#
# Revision: 3
# Processed by: cddbd v1.5.2PL0 Copyright (c) Steve Scherf et al.
# Submitted via: CDex 1.70beta2
#
DISCID=f50ba610
DTITLE=Ella Fitzgerald - Dedicated to You
DYEAR=1995
DGENRE=Vocal
TTITLE0=My Heart Belongs to Daddy
TTITLE1=My Last Affair
TTITLE2=Dedicated to You
TTITLE3=If Dreams Come True
TTITLE4=Goodnight My Love
TTITLE5=It Ain't What You Do
TTITLE6=Love and Kisses
TTITLE7=Rythm and Romance
TTITLE8=What Do You Know About Love
TTITLE9=I Want to Be Happy
TTITLE10=A Tisket A Tasket
TTITLE11=My Melancholy Baby
TTITLE12=I've Got the Spring Fever Blues
TTITLE13=If You Should Ever Leave
TTITLE14=Devoting My Time to You
TTITLE15=I Can't Stop Loving You
EXTD=YEAR: 1995
EXTT0=
EXTT1=
EXTT2=
EXTT3=
EXTT4=
EXTT5=
EXTT6=
EXTT7=
EXTT8=
EXTT9=
EXTT10=
EXTT11=
EXTT12=
EXTT13=
EXTT14=
EXTT15=
PLAYORDER=
